<?xml version="1.0" encoding="UTF-8"?>
<svg xmlns="http://www.w3.org/2000/svg" xmlns:xlink="http://www.w3.org/1999/xlink" width="48pt" height="48pt" viewBox="0 0 48 48" version="1.1">
<g id="surface837446">
<path style=" stroke:none;fill-rule:nonzero;fill:rgb(90.588235%,29.803922%,23.529412%);fill-opacity:1;" d="M 47 19 L 45.5 19 C 45.300781 19 45.101562 19 44.898438 19 C 42.101562 19 40.398438 18.5 39.300781 18.199219 C 39.800781 16.5 41.199219 13.300781 43.101562 10.800781 L 44.101562 9.5 L 42.5 9.199219 C 41.5 9.101562 40.601562 9 39.601562 9 C 37.300781 9 35 9.199219 33.699219 9.601562 C 33.601562 8.300781 33 5.800781 33 3 L 33 2 L 32 2 C 29.5 2 25.699219 4.800781 24.101562 6 C 22.398438 4.398438 18.5 0.898438 16.101562 0.898438 L 16 1 L 15 1 L 15 2 C 15 5.101562 14.5 7.699219 14.199219 9 C 12.699219 8.898438 9.699219 9 6.398438 8.300781 L 5 8 L 5.199219 9.398438 C 5.898438 13.699219 7.398438 16.800781 8.398438 18.398438 C 6.800781 18.898438 4.800781 20.101562 2 22.199219 L 1 23.101562 L 2.101562 23.898438 C 3.699219 25 4.800781 25.800781 5.699219 26.398438 C 6.699219 27 6.699219 27.398438 7.5 28.101562 C 5.300781 30.101562 3.5 31.199219 3.398438 31.199219 L 2.101562 32 L 3.5 32.898438 L 8 35.5 C 7.898438 36.101562 7.601562 37.101562 7.300781 39.398438 L 7 41 C 7 41 13 40 16 38 L 32 38 C 32.898438 38.398438 36 41 38.800781 41 L 40 41 L 39.699219 39.800781 C 39.300781 38.101562 39.101562 37.101562 39 36.5 C 40.398438 35.601562 44.398438 33.101562 45.398438 31 L 46 30 L 44.898438 29.699219 C 43.800781 29.398438 42.300781 28.699219 41.5 28.101562 C 42.898438 26.800781 45.101562 24 46.5 20.5 Z M 47 19 "/>
<path style=" stroke:none;fill-rule:nonzero;fill:rgb(73.72549%,66.666667%,64.313725%);fill-opacity:1;" d="M 35 28 C 32.789062 28 31 29.789062 31 32 C 31 34.210938 32.789062 36 35 36 C 37.210938 36 39 34.210938 39 32 C 39 29.789062 37.210938 28 35 28 Z M 13 28 C 10.789062 28 9 29.789062 9 32 C 9 34.210938 10.789062 36 13 36 C 15.210938 36 17 34.210938 17 32 C 17 29.789062 15.210938 28 13 28 Z M 13 28 "/>
<path style=" stroke:none;fill-rule:nonzero;fill:rgb(84.313725%,80%,78.431373%);fill-opacity:1;" d="M 24 11 C 17.898438 11 13 16.398438 13 24.199219 L 13 33.699219 C 13 41.601562 17.898438 47 24 47 C 30.101562 47 35 41.601562 35 33.800781 L 35 24.300781 C 35 16.398438 30.101562 11 24 11 Z M 24 11 "/>
<path style=" stroke:none;fill-rule:nonzero;fill:rgb(26.27451%,62.745098%,27.843137%);fill-opacity:1;" d="M 25.101562 37 L 19 37 L 19 37.898438 C 19 39.101562 19.5 40.398438 20.601562 40.601562 C 20.699219 41.800781 21.300781 43 22.5 43 C 23.699219 43 24.300781 41.800781 24.5 40.601562 C 25.199219 40.398438 26 39.699219 26 37.898438 L 26 37 Z M 25.101562 37 "/>
<path style=" stroke:none;fill-rule:nonzero;fill:rgb(55.294118%,43.137255%,38.823529%);fill-opacity:1;" d="M 17 39 C 16.601562 39 16.199219 38.699219 16.101562 38.300781 C 15.898438 37.800781 16.199219 37.199219 16.699219 37 C 16.800781 37 19.898438 35.898438 24 35.898438 C 28.101562 35.898438 31.199219 36.898438 31.300781 37 C 31.800781 37.199219 32.101562 37.699219 31.898438 38.300781 C 31.699219 38.800781 31.199219 39.101562 30.601562 38.898438 C 30.601562 38.898438 27.699219 38 23.898438 38 C 20.101562 38 17.199219 38.898438 17.199219 38.898438 C 17.199219 39 17.101562 39 17 39 Z M 17 39 "/>
<path style=" stroke:none;fill-rule:nonzero;fill:rgb(93.72549%,92.156863%,91.372549%);fill-opacity:1;" d="M 22 26 L 22 30.5 C 22 31.601562 22.101562 35 24 35 C 25.898438 35 26 31.601562 26 30.5 L 26 26 Z M 22 26 "/>
<path style=" stroke:none;fill-rule:nonzero;fill:rgb(98.039216%,98.039216%,98.039216%);fill-opacity:1;" d="M 28.5 21 C 26.015625 21 24 23.015625 24 25.5 C 24 27.984375 26.015625 30 28.5 30 C 30.984375 30 33 27.984375 33 25.5 C 33 23.015625 30.984375 21 28.5 21 Z M 28.5 21 "/>
<path style=" stroke:none;fill-rule:nonzero;fill:rgb(98.039216%,98.039216%,98.039216%);fill-opacity:1;" d="M 19.5 21 C 17.015625 21 15 23.015625 15 25.5 C 15 27.984375 17.015625 30 19.5 30 C 21.984375 30 24 27.984375 24 25.5 C 24 23.015625 21.984375 21 19.5 21 Z M 19.5 21 "/>
<path style=" stroke:none;fill-rule:nonzero;fill:rgb(12.941176%,12.941176%,12.941176%);fill-opacity:1;" d="M 29 24 C 28.449219 24 28 24.449219 28 25 C 28 25.550781 28.449219 26 29 26 C 29.550781 26 30 25.550781 30 25 C 30 24.449219 29.550781 24 29 24 Z M 19 25 C 18.449219 25 18 25.449219 18 26 C 18 26.550781 18.449219 27 19 27 C 19.550781 27 20 26.550781 20 26 C 20 25.449219 19.550781 25 19 25 Z M 19 25 "/>
<path style=" stroke:none;fill-rule:nonzero;fill:rgb(39.215686%,70.980392%,96.470588%);fill-opacity:1;" d="M 24 22 C 22.601562 22 21.398438 21.699219 20.300781 21.398438 C 19.800781 21.300781 19.199219 21.101562 18.800781 21.101562 C 17.199219 20.898438 16.199219 21.101562 16.199219 21.101562 C 15.699219 21.199219 15.101562 20.898438 15 20.398438 C 14.898438 19.898438 15.199219 19.398438 15.699219 19.199219 C 15.800781 19.199219 17.101562 18.898438 19.101562 19.199219 C 19.601562 19.300781 20.199219 19.398438 20.800781 19.601562 C 21.800781 19.898438 22.800781 20.101562 23.898438 20.101562 C 25 20.101562 26 19.800781 27 19.601562 C 27.601562 19.398438 28.199219 19.300781 28.699219 19.199219 C 30.699219 18.898438 32 19.199219 32.101562 19.199219 C 32.601562 19.300781 33 19.800781 32.800781 20.398438 C 32.699219 20.898438 32.101562 21.199219 31.601562 21.101562 C 31.601562 21.101562 30.601562 20.898438 29 21.101562 C 28.601562 21.199219 28.101562 21.300781 27.5 21.398438 C 26.601562 21.699219 25.398438 22 24 22 Z M 24 22 "/>
</g>
</svg>
